<svg 
          width="17.862594604492188" 
          height="11.908395767211914" fill="none" 
          xmlns="http://www.w3.org/2000/svg">
          <path d="M 9.923663669162327 2.977099178401545 C 9.923663669162327 2.4290304289944515 10.367961257410368 1.9847326278686523 10.916030036078558 1.9847326278686523 L 11.908396402994791 1.9847326278686523 C 12.456465181662981 1.9847326278686523 12.900762769911024 2.429030192395885 12.900762769911024 2.9770989418029785 L 12.900762769911024 10.916029453277588 C 12.900762769911024 11.464098202684681 12.456465181662981 11.908395767211914 11.908396402994791 11.908395767211914 L 10.916030036078558 11.908395767211914 C 10.367961257410368 11.908395767211914 9.923663669162327 11.464098202684681 9.923663669162327 10.916029453277588 L 9.923663669162327 2.977099178401545 ZM 14.885495503743488 0.9923660773357597 C 14.885495503743488 0.44429732792866616 15.329793091991531 0 15.877861870659721 0 L 16.870228237575954 0 C 17.418297016244146 0 17.862594604492188 0.4442975645272327 17.862594604492188 0.9923663139343262 L 17.862594604492188 10.916029453277588 C 17.862594604492188 11.464098202684681 17.418297016244146 11.908395767211914 16.870228237575954 11.908395767211914 L 15.877861870659721 11.908395767211914 C 15.329793091991531 11.908395767211914 14.885495503743488 11.464098202684681 14.885495503743488 10.916029453277588 L 14.885495503743488 0.9923660773357597 ZM 4.961831834581163 6.45038104057312 C 4.961831834581163 5.902312291166027 5.4061294228292045 5.458014726638794 5.9541982014973955 5.458014726638794 L 6.946564568413628 5.458014726638794 C 7.494633347081819 5.458014726638794 7.938930935329861 5.902312291166027 7.938930935329861 6.45038104057312 L 7.938930935329861 10.916029453277588 C 7.938930935329861 11.464098202684681 7.494633347081819 11.908395767211914 6.946564568413628 11.908395767211914 L 5.9541982014973955 11.908395767211914 C 5.4061294228292045 11.908395767211914 4.961831834581163 11.464098202684681 4.961831834581163 10.916029453277588 L 4.961831834581163 6.45038104057312 ZM 0 8.931296825408936 C 0 8.383228076001842 0.4442975882480419 7.938930511474609 0.9923663669162326 7.938930511474609 L 1.9847327338324652 7.938930511474609 C 2.5328015125006558 7.938930511474609 2.9770991007486978 8.383228076001842 2.9770991007486978 8.931296825408936 L 2.9770991007486978 10.916029453277588 C 2.9770991007486978 11.464098202684681 2.5328015125006558 11.908395767211914 1.9847327338324652 11.908395767211914 L 0.9923663077665879 11.908395767211914 C 0.44429752909839715 11.908395767211914 0 11.464098202684681 0 10.916029453277588 L 0 8.931296825408936 Z" fill="rgb(0,0,0)"/>
        </svg>